Cantarell-Regular.ufo
<glyph name="L" format="1">
  <advance width="545"/>
  <unicode hex="004C"/>
  <note>
    L
  </note>
  <outline>
    <contour>
      <point x="500" y="0" type="line"/>
      <point x="500" y="74" type="line"/>
      <point x="189" y="74" type="line"/>
      <point x="189" y="694" type="line"/>
      <point x="106" y="694" type="line"/>
      <point x="106" y="0" type="line"/>
    </contour>
    <contour>
      <point x="304" y="0" type="move" name="bottom"/>
    </contour>
    <contour>
      <point x="545" y="352" type="move" name="periodcentered"/>
    </contour>
    <contour>
      <point x="149" y="694" type="move" name="top"/>
    </contour>
    <contour>
      <point x="313" y="482" type="move" name="topright"/>
    </contour>
    <contour>
      <point x="174" y="347" type="move" name="center"/>
    </contour>
  </outline>
</glyph>
<glyph name="asciicircum" format="1">
  <advance width="647"/>
  <unicode hex="005E"/>
  <outline>
    <contour>
      <point x="329" y="619" type="line"/>
      <point x="307" y="620" type="line"/>
      <point x="501" y="232" type="line"/>
      <point x="577" y="268" type="line"/>
      <point x="354" y="699" type="line"/>
      <point x="284" y="699" type="line"/>
      <point x="70" y="260" type="line"/>
      <point x="130" y="232" type="line"/>
    </contour>
  </outline>
</glyph>
<glyph name="underscore" format="1">
  <advance width="608"/>
  <unicode hex="005F"/>
  <outline>
    <contour>
      <point x="523" y="-69" type="line"/>
      <point x="523" y="0" type="line"/>
      <point x="85" y="0" type="line"/>
      <point x="85" y="-69" type="line"/>
    </contour>
  </outline>
</glyph>
<glyph name="c" format="1">
  <advance width="466"/>
  <unicode hex="0063"/>
  <note>
    c
  </note>
  <outline>
    <contour>
      <point x="331" y="-10"/>
      <point x="391" y="4"/>
      <point x="431" y="28" type="curve"/>
      <point x="413" y="86" type="line"/>
      <point x="373" y="67"/>
      <point x="329" y="56"/>
      <point x="292" y="56" type="curve" smooth="yes"/>
      <point x="192" y="56"/>
      <point x="135" y="126"/>
      <point x="135" y="243" type="curve" smooth="yes"/>
      <point x="135" y="359"/>
      <point x="191" y="422"/>
      <point x="291" y="422" type="curve" smooth="yes"/>
      <point x="329" y="422"/>
      <point x="372" y="413"/>
      <point x="412" y="395" type="curve"/>
      <point x="431" y="460" type="line"/>
      <point x="387" y="481"/>
      <point x="340" y="492"/>
      <point x="292" y="492" type="curve" smooth="yes"/>
      <point x="149" y="492"/>
      <point x="53" y="386"/>
      <point x="53" y="227" type="curve" smooth="yes"/>
      <point x="53" y="78"/>
      <point x="135" y="-10"/>
      <point x="273" y="-10" type="curve" smooth="yes"/>
    </contour>
    <contour>
      <point x="269" y="482" type="move" name="top"/>
    </contour>
    <contour>
      <point x="249" y="0" type="move" name="bottom"/>
    </contour>
  </outline>
</glyph>
<glyph name="w" format="1">
  <advance width="814"/>
  <unicode hex="0077"/>
  <note>
    w
  </note>
  <outline>
    <contour>
      <point x="279" y="0" type="line"/>
      <point x="420" y="440" type="line"/>
      <point x="387" y="440" type="line"/>
      <point x="534" y="0" type="line"/>
      <point x="615" y="0" type="line"/>
      <point x="785" y="482" type="line"/>
      <point x="705" y="482" type="line"/>
      <point x="562" y="35" type="line"/>
      <point x="595" y="35" type="line"/>
      <point x="455" y="480" type="line"/>
      <point x="365" y="480" type="line"/>
      <point x="228" y="35" type="line"/>
      <point x="260" y="35" type="line"/>
      <point x="118" y="482" type="line"/>
      <point x="27" y="482" type="line"/>
      <point x="203" y="0" type="line"/>
    </contour>
    <contour>
      <point x="414" y="482" type="move" name="top"/>
    </contour>
    <contour>
      <point x="414" y="0" type="move" name="bottom"/>
    </contour>
  </outline>
</glyph>
<glyph name="x" format="1">
  <advance width="498"/>
  <unicode hex="0078"/>
  <note>
    x
  </note>
  <outline>
    <contour>
      <point x="119" y="0" type="line"/>
      <point x="269" y="214" type="line"/>
      <point x="472" y="482" type="line"/>
      <point x="381" y="482" type="line"/>
      <point x="228" y="264" type="line"/>
      <point x="28" y="0" type="line"/>
    </contour>
    <contour>
      <point x="463" y="0" type="line"/>
      <point x="265" y="272" type="line"/>
      <point x="119" y="482" type="line"/>
      <point x="27" y="482" type="line"/>
      <point x="222" y="211" type="line"/>
      <point x="371" y="0" type="line"/>
    </contour>
    <contour>
      <point x="248" y="482" type="move" name="top"/>
    </contour>
    <contour>
      <point x="248" y="0" type="move" name="bottom"/>
    </contour>
  </outline>
</glyph>
<glyph name="y" format="1">
  <advance width="510"/>
  <unicode hex="0079"/>
  <note>
    y
  </note>
  <outline>
    <contour>
      <point x="295" y="0" type="line"/>
      <point x="483" y="482" type="line"/>
      <point x="403" y="482" type="line"/>
      <point x="236" y="16" type="line"/>
      <point x="280" y="16" type="line"/>
      <point x="116" y="482" type="line"/>
      <point x="27" y="482" type="line"/>
      <point x="217" y="0" type="line"/>
    </contour>
    <contour>
      <point x="215" y="-217" type="line"/>
      <point x="295" y="0" type="line"/>
      <point x="217" y="0" type="line"/>
      <point x="130" y="-217" type="line"/>
    </contour>
    <contour>
      <point x="245" y="482" type="move" name="top"/>
    </contour>
    <contour>
      <point x="395" y="0" type="move" name="bottom"/>
    </contour>
  </outline>
</glyph>
<glyph name="currency" format="1">
  <advance width="665"/>
  <unicode hex="00A4"/>
  <outline>
    <contour>
      <point x="452" y="131"/>
      <point x="534" y="215"/>
      <point x="534" y="342" type="curve" smooth="yes"/>
      <point x="534" y="461"/>
      <point x="456" y="540"/>
      <point x="338" y="540" type="curve" smooth="yes"/>
      <point x="214" y="540"/>
      <point x="132" y="456"/>
      <point x="132" y="331" type="curve" smooth="yes"/>
      <point x="132" y="211"/>
      <point x="210" y="131"/>
      <point x="328" y="131" type="curve" smooth="yes"/>
    </contour>
    <contour>
      <point x="229" y="181" type="line"/>
      <point x="188" y="222" type="line"/>
      <point x="96" y="131" type="line"/>
      <point x="137" y="90" type="line"/>
    </contour>
    <contour>
      <point x="569" y="131" type="line"/>
      <point x="477" y="221" type="line"/>
      <point x="437" y="181" type="line"/>
      <point x="529" y="90" type="line"/>
    </contour>
    <contour>
      <point x="262" y="204"/>
      <point x="212" y="259"/>
      <point x="212" y="341" type="curve" smooth="yes"/>
      <point x="212" y="417"/>
      <point x="258" y="467"/>
      <point x="328" y="467" type="curve" smooth="yes"/>
      <point x="404" y="467"/>
      <point x="454" y="413"/>
      <point x="454" y="332" type="curve" smooth="yes"/>
      <point x="454" y="255"/>
      <point x="408" y="204"/>
      <point x="338" y="204" type="curve" smooth="yes"/>
    </contour>
    <contour>
      <point x="229" y="488" type="line"/>
      <point x="137" y="580" type="line"/>
      <point x="96" y="539" type="line"/>
      <point x="187" y="448" type="line"/>
    </contour>
    <contour>
      <point x="569" y="539" type="line"/>
      <point x="528" y="580" type="line"/>
      <point x="436" y="488" type="line"/>
      <point x="477" y="448" type="line"/>
    </contour>
  </outline>
</glyph>
<glyph name="section" format="1">
  <advance width="560"/>
  <unicode hex="00A7"/>
  <outline>
    <contour>
      <point x="390" y="-60"/>
      <point x="468" y="0"/>
      <point x="468" y="95" type="curve" smooth="yes"/>
      <point x="468" y="282"/>
      <point x="180" y="219"/>
      <point x="180" y="331" type="curve" smooth="yes"/>
      <point x="180" y="376"/>
      <point x="228" y="413"/>
      <point x="285" y="413" type="curve"/>
      <point x="299" y="454" type="line"/>
      <point x="180" y="454"/>
      <point x="100" y="401"/>
      <point x="100" y="317" type="curve" smooth="yes"/>
      <point x="100" y="151"/>
      <point x="388" y="214"/>
      <point x="388" y="86" type="curve" smooth="yes"/>
      <point x="388" y="38"/>
      <point x="347" y="10"/>
      <point x="277" y="10" type="curve" smooth="yes"/>
      <point x="222" y="10"/>
      <point x="156" y="26"/>
      <point x="111" y="48" type="curve"/>
      <point x="92" y="-19" type="line"/>
      <point x="146" y="-44"/>
      <point x="209" y="-60"/>
      <point x="268" y="-60" type="curve" smooth="yes"/>
    </contour>
    <contour>
      <point x="388" y="191"/>
      <point x="468" y="250"/>
      <point x="468" y="338" type="curve" smooth="yes"/>
      <point x="468" y="505"/>
      <point x="180" y="445"/>
      <point x="180" y="562" type="curve" smooth="yes"/>
      <point x="180" y="606"/>
      <point x="221" y="634"/>
      <point x="285" y="634" type="curve" smooth="yes"/>
      <point x="327" y="634"/>
      <point x="382" y="623"/>
      <point x="423" y="607" type="curve"/>
      <point x="442" y="672" type="line"/>
      <point x="399" y="693"/>
      <point x="349" y="704"/>
      <point x="298" y="704" type="curve" smooth="yes"/>
      <point x="178" y="704"/>
      <point x="100" y="644"/>
      <point x="100" y="553" type="curve" smooth="yes"/>
      <point x="100" y="376"/>
      <point x="388" y="441"/>
      <point x="388" y="316" type="curve" smooth="yes"/>
      <point x="388" y="269"/>
      <point x="349" y="241"/>
      <point x="281" y="241" type="curve"/>
      <point x="267" y="191" type="line"/>
    </contour>
  </outline>
</glyph>
<glyph name="ordmasculine" format="1">
  <advance width="75"/>
  <unicode hex="00BA"/>
  <outline>
    <contour>
      <point x="314" y="373"/>
      <point x="387" y="450"/>
      <point x="387" y="565" type="curve" smooth="yes"/>
      <point x="387" y="677"/>
      <point x="319" y="749"/>
      <point x="215" y="749" type="curve" smooth="yes"/>
      <point x="106" y="749"/>
      <point x="34" y="672"/>
      <point x="34" y="557" type="curve" smooth="yes"/>
      <point x="34" y="446"/>
      <point x="102" y="373"/>
      <point x="207" y="373" type="curve" smooth="yes"/>
    </contour>
    <contour>
      <point x="146" y="430"/>
      <point x="103" y="483"/>
      <point x="103" y="563" type="curve" smooth="yes"/>
      <point x="103" y="640"/>
      <point x="143" y="692"/>
      <point x="208" y="692" type="curve" smooth="yes"/>
      <point x="275" y="692"/>
      <point x="319" y="638"/>
      <point x="319" y="558" type="curve" smooth="yes"/>
      <point x="319" y="480"/>
      <point x="277" y="430"/>
      <point x="213" y="430" type="curve" smooth="yes"/>
    </contour>
  </outline>
</glyph>
<glyph name="guillemotright" format="1">
  <advance width="529"/>
  <unicode hex="00BB"/>
  <outline>
    <contour>
      <point x="338" y="30" type="line"/>
      <point x="479" y="241" type="line"/>
      <point x="337" y="452" type="line"/>
      <point x="249" y="452" type="line"/>
      <point x="407" y="215" type="line"/>
      <point x="407" y="262" type="line"/>
      <point x="257" y="30" type="line"/>
    </contour>
    <contour>
      <point x="136" y="30" type="line"/>
      <point x="277" y="241" type="line"/>
      <point x="135" y="452" type="line"/>
      <point x="47" y="452" type="line"/>
      <point x="205" y="215" type="line"/>
      <point x="205" y="262" type="line"/>
      <point x="55" y="30" type="line"/>
    </contour>
  </outline>
</glyph>
<glyph name="germandbls" format="1">
  <advance width="600"/>
  <unicode hex="00DF"/>
  <outline>
    <contour>
      <point x="480" y="-10"/>
      <point x="560" y="58"/>
      <point x="560" y="154" type="curve" smooth="yes"/>
      <point x="560" y="302"/>
      <point x="371" y="304"/>
      <point x="371" y="387" type="curve" smooth="yes"/>
      <point x="371" y="451"/>
      <point x="484" y="469"/>
      <point x="484" y="582" type="curve" smooth="yes"/>
      <point x="484" y="679"/>
      <point x="401" y="749"/>
      <point x="287" y="749" type="curve" smooth="yes"/>
      <point x="164" y="749"/>
      <point x="85" y="666"/>
      <point x="85" y="539" type="curve" smooth="yes"/>
      <point x="85" y="0" type="line"/>
      <point x="165" y="0" type="line"/>
      <point x="165" y="548" type="line" smooth="yes"/>
      <point x="165" y="633"/>
      <point x="205" y="679"/>
      <point x="277" y="679" type="curve" smooth="yes"/>
      <point x="350" y="679"/>
      <point x="404" y="633"/>
      <point x="404" y="572" type="curve" smooth="yes"/>
      <point x="404" y="483"/>
      <point x="291" y="468"/>
      <point x="291" y="374" type="curve" smooth="yes"/>
      <point x="291" y="253"/>
      <point x="480" y="250"/>
      <point x="480" y="141" type="curve" smooth="yes"/>
      <point x="480" y="94"/>
      <point x="436" y="60"/>
      <point x="374" y="60" type="curve" smooth="yes"/>
      <point x="338" y="60"/>
      <point x="292" y="71"/>
      <point x="248" y="92" type="curve"/>
      <point x="229" y="27" type="line"/>
      <point x="270" y="4"/>
      <point x="320" y="-10"/>
      <point x="368" y="-10" type="curve" smooth="yes"/>
    </contour>
  </outline>
</glyph>
<glyph name="florin" format="1">
  <advance width="490"/>
  <unicode hex="0192"/>
  <outline>
    <contour>
      <point x="230" y="0" type="line"/>
      <point x="230" y="587" type="line" smooth="yes"/>
      <point x="230" y="649"/>
      <point x="259" y="681"/>
      <point x="314" y="681" type="curve" smooth="yes"/>
      <point x="340" y="681"/>
      <point x="373" y="674"/>
      <point x="398" y="662" type="curve"/>
      <point x="417" y="726" type="line"/>
      <point x="386" y="741"/>
      <point x="354" y="749"/>
      <point x="320" y="749" type="curve" smooth="yes"/>
      <point x="218" y="749"/>
      <point x="150" y="680"/>
      <point x="150" y="577" type="curve" smooth="yes"/>
      <point x="150" y="0" type="line"/>
    </contour>
    <contour>
      <point x="380" y="415" type="line"/>
      <point x="380" y="482" type="line"/>
      <point x="78" y="482" type="line"/>
      <point x="78" y="415" type="line"/>
    </contour>
    <contour>
      <point x="181" y="-194"/>
      <point x="230" y="-113"/>
      <point x="230" y="-23" type="curve" smooth="yes"/>
      <point x="230" y="0" type="line"/>
      <point x="150" y="0" type="line"/>
      <point x="150" y="-35" type="line" smooth="yes"/>
      <point x="150" y="-98"/>
      <point x="122" y="-155"/>
      <point x="80" y="-179" type="curve"/>
      <point x="107" y="-227" type="line"/>
    </contour>
  </outline>
</glyph>
<glyph name="uni030A" format="1">
  <advance width="346"/>
  <unicode hex="030A"/>
  <outline>
    <contour>
      <point x="235" y="555"/>
      <point x="277" y="597"/>
      <point x="277" y="661" type="curve" smooth="yes"/>
      <point x="277" y="722"/>
      <point x="236" y="763"/>
      <point x="175" y="763" type="curve" smooth="yes"/>
      <point x="111" y="763"/>
      <point x="69" y="721"/>
      <point x="69" y="657" type="curve" smooth="yes"/>
      <point x="69" y="596"/>
      <point x="110" y="555"/>
      <point x="171" y="555" type="curve" smooth="yes"/>
    </contour>
    <contour>
      <point x="146" y="613"/>
      <point x="127" y="632"/>
      <point x="127" y="661" type="curve" smooth="yes"/>
      <point x="127" y="687"/>
      <point x="145" y="705"/>
      <point x="171" y="705" type="curve" smooth="yes"/>
      <point x="200" y="705"/>
      <point x="219" y="686"/>
      <point x="219" y="657" type="curve" smooth="yes"/>
      <point x="219" y="631"/>
      <point x="201" y="613"/>
      <point x="175" y="613" type="curve" smooth="yes"/>
    </contour>
    <contour>
      <point x="176" y="739" type="move" name="top"/>
    </contour>
    <contour>
      <point x="173" y="482" type="move" name="_top"/>
    </contour>
  </outline>
</glyph>
<glyph name="eta" format="1">
  <advance width="570"/>
  <unicode hex="03B7"/>
  <outline>
    <contour>
      <point x="414" y="-217" type="line"/>
      <point x="494" y="-217" type="line"/>
      <point x="494" y="0" type="line"/>
      <point x="414" y="0" type="line"/>
    </contour>
    <component base="n"/>
  </outline>
</glyph>
<glyph name="pi" format="1">
  <advance width="615"/>
  <unicode hex="03C0"/>
  <outline>
    <contour>
      <point x="535" y="-10"/>
      <point x="561" y="-2"/>
      <point x="580" y="7" type="curve"/>
      <point x="566" y="63" type="line"/>
      <point x="557" y="59"/>
      <point x="545" y="55"/>
      <point x="532" y="55" type="curve" smooth="yes"/>
      <point x="501" y="55"/>
      <point x="484" y="77"/>
      <point x="484" y="124" type="curve" smooth="yes"/>
      <point x="484" y="425" type="line"/>
      <point x="404" y="425" type="line"/>
      <point x="404" y="114" type="line" smooth="yes"/>
      <point x="404" y="34"/>
      <point x="445" y="-10"/>
      <point x="508" y="-10" type="curve" smooth="yes"/>
    </contour>
    <contour>
      <point x="188" y="0" type="line"/>
      <point x="188" y="425" type="line"/>
      <point x="108" y="425" type="line"/>
      <point x="108" y="0" type="line"/>
    </contour>
    <contour>
      <point x="563" y="415" type="line"/>
      <point x="563" y="482" type="line"/>
      <point x="28" y="482" type="line"/>
      <point x="28" y="415" type="line"/>
    </contour>
  </outline>
</glyph>
<glyph name="upsilon" format="1">
  <advance width="557"/>
  <unicode hex="03C5"/>
  <outline>
    <contour>
      <point x="392" y="-10"/>
      <point x="472" y="59"/>
      <point x="472" y="166" type="curve" smooth="yes"/>
      <point x="472" y="482" type="line"/>
      <point x="392" y="482" type="line"/>
      <point x="392" y="182" type="line" smooth="yes"/>
      <point x="392" y="104"/>
      <point x="349" y="60"/>
      <point x="274" y="60" type="curve" smooth="yes"/>
      <point x="199" y="60"/>
      <point x="156" y="104"/>
      <point x="156" y="182" type="curve" smooth="yes"/>
      <point x="156" y="482" type="line"/>
      <point x="76" y="482" type="line"/>
      <point x="76" y="166" type="line" smooth="yes"/>
      <point x="76" y="59"/>
      <point x="144" y="-10"/>
      <point x="265" y="-10" type="curve"/>
    </contour>
    <contour>
      <point x="454" y="10" type="move" name="ogonek"/>
    </contour>
    <contour>
      <point x="275" y="482" type="move" name="top"/>
    </contour>
    <contour>
      <point x="533" y="482" type="move" name="topright"/>
    </contour>
    <contour>
      <point x="275" y="0" type="move" name="bottom"/>
    </contour>
  </outline>
</glyph>
<glyph name="uni040B" format="1">
  <advance width="814"/>
  <unicode hex="040B"/>
  <outline>
    <contour>
      <point x="745" y="0" type="line"/>
      <point x="745" y="246" type="line" smooth="yes"/>
      <point x="745" y="353"/>
      <point x="659" y="422"/>
      <point x="527" y="422" type="curve" smooth="yes"/>
      <point x="441" y="422"/>
      <point x="352" y="392"/>
      <point x="291" y="343" type="curve"/>
      <point x="310" y="292" type="line"/>
      <point x="361" y="329"/>
      <point x="432" y="352"/>
      <point x="506" y="352" type="curve" smooth="yes"/>
      <point x="606" y="352"/>
      <point x="665" y="308"/>
      <point x="665" y="230" type="curve" smooth="yes"/>
      <point x="665" y="0" type="line"/>
    </contour>
    <contour>
      <point x="348" y="0" type="line"/>
      <point x="348" y="660" type="line"/>
      <point x="265" y="660" type="line"/>
      <point x="265" y="0" type="line"/>
    </contour>
    <contour>
      <point x="590" y="622" type="line"/>
      <point x="590" y="694" type="line"/>
      <point x="44" y="694" type="line"/>
      <point x="44" y="622" type="line"/>
    </contour>
  </outline>
</glyph>
<glyph name="uni0422" format="1">
  <advance width="634"/>
  <unicode hex="0422"/>
  <outline>
    <component base="T"/>
    <contour>
      <point x="614" y="0" type="move" name="bottomright"/>
    </contour>
  </outline>
</glyph>
<glyph name="uni0424" format="1">
  <advance width="832"/>
  <unicode hex="0424"/>
  <outline>
    <contour>
      <point x="648" y="88"/>
      <point x="772" y="178"/>
      <point x="772" y="350" type="curve" smooth="yes"/>
      <point x="772" y="520"/>
      <point x="651" y="608"/>
      <point x="419" y="608" type="curve" smooth="yes"/>
      <point x="183" y="608"/>
      <point x="60" y="517"/>
      <point x="60" y="343" type="curve" smooth="yes"/>
      <point x="60" y="175"/>
      <point x="180" y="88"/>
      <point x="410" y="88" type="curve" smooth="yes"/>
    </contour>
    <contour>
      <point x="239" y="161"/>
      <point x="145" y="226"/>
      <point x="145" y="350" type="curve" smooth="yes"/>
      <point x="145" y="472"/>
      <point x="236" y="535"/>
      <point x="409" y="535" type="curve" smooth="yes"/>
      <point x="592" y="535"/>
      <point x="687" y="469"/>
      <point x="687" y="343" type="curve" smooth="yes"/>
      <point x="687" y="223"/>
      <point x="595" y="161"/>
      <point x="419" y="161" type="curve" smooth="yes"/>
    </contour>
    <contour>
      <point x="457" y="-10" type="line"/>
      <point x="457" y="704" type="line"/>
      <point x="374" y="704" type="line"/>
      <point x="374" y="-10" type="line"/>
    </contour>
  </outline>
</glyph>
<glyph name="uni0425" format="1">
  <advance width="649"/>
  <unicode hex="0425"/>
  <outline>
    <component base="X"/>
    <contour>
      <point x="587" y="0" type="move" name="bottomright"/>
    </contour>
  </outline>
</glyph>
<glyph name="uni0426" format="1">
  <advance width="746"/>
  <unicode hex="0426"/>
  <outline>
    <contour>
      <point x="702" y="-178" type="line"/>
      <point x="702" y="71" type="line"/>
      <point x="188" y="71" type="line"/>
      <point x="188" y="694" type="line"/>
      <point x="106" y="694" type="line"/>
      <point x="106" y="0" type="line"/>
      <point x="627" y="0" type="line"/>
      <point x="627" y="-178" type="line"/>
    </contour>
    <contour>
      <point x="611" y="30" type="line"/>
      <point x="611" y="694" type="line"/>
      <point x="529" y="694" type="line"/>
      <point x="529" y="30" type="line"/>
    </contour>
  </outline>
</glyph>
<glyph name="uni0431" format="1">
  <advance width="561"/>
  <unicode hex="0431"/>
  <outline>
    <contour>
      <point x="426" y="-10"/>
      <point x="509" y="89"/>
      <point x="509" y="243" type="curve" smooth="yes"/>
      <point x="509" y="368"/>
      <point x="432" y="454"/>
      <point x="319" y="454" type="curve" smooth="yes"/>
      <point x="225" y="454"/>
      <point x="150" y="394"/>
      <point x="106" y="286" type="curve"/>
      <point x="128" y="243" type="line"/>
      <point x="160" y="332"/>
      <point x="219" y="382"/>
      <point x="290" y="382" type="curve" smooth="yes"/>
      <point x="370" y="382"/>
      <point x="425" y="321"/>
      <point x="425" y="229" type="curve" smooth="yes"/>
      <point x="425" y="126"/>
      <point x="379" y="63"/>
      <point x="305" y="63" type="curve" smooth="yes"/>
      <point x="204" y="63"/>
      <point x="146" y="160"/>
      <point x="146" y="334" type="curve" smooth="yes"/>
      <point x="146" y="551"/>
      <point x="170" y="587"/>
      <point x="285" y="611" type="curve" smooth="yes"/>
      <point x="358" y="626"/>
      <point x="415" y="648"/>
      <point x="462" y="683" type="curve"/>
      <point x="438" y="745" type="line"/>
      <point x="399" y="721"/>
      <point x="351" y="702"/>
      <point x="277" y="685" type="curve" smooth="yes"/>
      <point x="116" y="647"/>
      <point x="63" y="563"/>
      <point x="63" y="328" type="curve" smooth="yes"/>
      <point x="63" y="110"/>
      <point x="152" y="-10"/>
      <point x="295" y="-10" type="curve" smooth="yes"/>
    </contour>
  </outline>
</glyph>
<glyph name="uni0442" format="1">
  <advance width="80"/>
  <unicode hex="0442"/>
  <outline>
    <contour>
      <point x="279" y="0" type="line"/>
      <point x="279" y="460" type="line"/>
      <point x="200" y="460" type="line"/>
      <point x="200" y="0" type="line"/>
    </contour>
    <contour>
      <point x="463" y="415" type="line"/>
      <point x="463" y="482" type="line"/>
      <point x="18" y="482" type="line"/>
      <point x="18" y="415" type="line"/>
    </contour>
    <contour>
      <point x="471" y="0" type="move" name="bottomright"/>
    </contour>
  </outline>
</glyph>
<glyph name="uni0444" format="1">
  <advance width="798"/>
  <unicode hex="0444"/>
  <outline>
    <contour>
      <point x="437" y="-217" type="line"/>
      <point x="437" y="739" type="line"/>
      <point x="360" y="739" type="line"/>
      <point x="360" y="-217" type="line"/>
    </contour>
    <contour>
      <point x="313" y="-10"/>
      <point x="368" y="31"/>
      <point x="400" y="96" type="curve"/>
      <point x="374" y="132" type="line"/>
      <point x="352" y="87"/>
      <point x="312" y="60"/>
      <point x="267" y="60" type="curve" smooth="yes"/>
      <point x="188" y="60"/>
      <point x="137" y="135"/>
      <point x="137" y="246" type="curve" smooth="yes"/>
      <point x="137" y="351"/>
      <point x="183" y="422"/>
      <point x="260" y="422" type="curve" smooth="yes"/>
      <point x="310" y="422"/>
      <point x="350" y="394"/>
      <point x="373" y="346" type="curve"/>
      <point x="405" y="390" type="line"/>
      <point x="375" y="455"/>
      <point x="322" y="492"/>
      <point x="254" y="492" type="curve" smooth="yes"/>
      <point x="135" y="492"/>
      <point x="56" y="389"/>
      <point x="56" y="237" type="curve" smooth="yes"/>
      <point x="56" y="89"/>
      <point x="132" y="-10"/>
      <point x="243" y="-10" type="curve" smooth="yes"/>
    </contour>
    <contour>
      <point x="661" y="-10"/>
      <point x="742" y="93"/>
      <point x="742" y="247" type="curve" smooth="yes"/>
      <point x="742" y="394"/>
      <point x="665" y="492"/>
      <point x="551" y="492" type="curve" smooth="yes"/>
      <point x="472" y="492"/>
      <point x="413" y="445"/>
      <point x="385" y="364" type="curve"/>
      <point x="413" y="320" type="line"/>
      <point x="432" y="384"/>
      <point x="475" y="422"/>
      <point x="529" y="422" type="curve" smooth="yes"/>
      <point x="609" y="422"/>
      <point x="661" y="346"/>
      <point x="661" y="235" type="curve" smooth="yes"/>
      <point x="661" y="130"/>
      <point x="614" y="60"/>
      <point x="537" y="60" type="curve" smooth="yes"/>
      <point x="483" y="60"/>
      <point x="439" y="96"/>
      <point x="417" y="155" type="curve"/>
      <point x="384" y="111" type="line"/>
      <point x="411" y="33"/>
      <point x="464" y="-10"/>
      <point x="541" y="-10" type="curve" smooth="yes"/>
    </contour>
  </outline>
</glyph>
<glyph name="uni0449" format="1">
  <advance width="80"/>
  <unicode hex="0449"/>
  <outline>
    <contour>
      <point x="825" y="-126" type="line"/>
      <point x="825" y="66" type="line"/>
      <point x="165" y="66" type="line"/>
      <point x="165" y="482" type="line"/>
      <point x="85" y="482" type="line"/>
      <point x="85" y="0" type="line"/>
      <point x="750" y="0" type="line"/>
      <point x="750" y="-126" type="line"/>
    </contour>
    <contour>
      <point x="460" y="32" type="line"/>
      <point x="460" y="482" type="line"/>
      <point x="381" y="482" type="line"/>
      <point x="381" y="32" type="line"/>
    </contour>
    <contour>
      <point x="756" y="32" type="line"/>
      <point x="756" y="482" type="line"/>
      <point x="676" y="482" type="line"/>
      <point x="676" y="32" type="line"/>
    </contour>
  </outline>
</glyph>
<glyph name="uni044A" format="1">
  <advance width="80"/>
  <unicode hex="044A"/>
  <outline>
    <contour>
      <point x="345" y="0" type="line" smooth="yes"/>
      <point x="470" y="0"/>
      <point x="545" y="62"/>
      <point x="545" y="164" type="curve" smooth="yes"/>
      <point x="545" y="259"/>
      <point x="478" y="321"/>
      <point x="375" y="321" type="curve" smooth="yes"/>
      <point x="215" y="321" type="line"/>
      <point x="215" y="255" type="line"/>
      <point x="362" y="255" type="line" smooth="yes"/>
      <point x="423" y="255"/>
      <point x="465" y="215"/>
      <point x="465" y="156" type="curve" smooth="yes"/>
      <point x="465" y="99"/>
      <point x="425" y="67"/>
      <point x="356" y="67" type="curve" smooth="yes"/>
      <point x="244" y="67" type="line"/>
      <point x="244" y="482" type="line"/>
      <point x="164" y="482" type="line"/>
      <point x="164" y="0" type="line"/>
    </contour>
    <contour>
      <point x="209" y="415" type="line"/>
      <point x="209" y="482" type="line"/>
      <point x="28" y="482" type="line"/>
      <point x="28" y="415" type="line"/>
    </contour>
  </outline>
</glyph>
<glyph name="uni044E" format="1">
  <advance width="69"/>
  <unicode hex="044E"/>
  <outline>
    <contour>
      <point x="608" y="-6"/>
      <point x="703" y="96"/>
      <point x="703" y="244" type="curve" smooth="yes"/>
      <point x="703" y="390"/>
      <point x="611" y="488"/>
      <point x="474" y="488" type="curve" smooth="yes"/>
      <point x="337" y="488"/>
      <point x="250" y="390"/>
      <point x="250" y="238" type="curve" smooth="yes"/>
      <point x="250" y="89"/>
      <point x="334" y="-6"/>
      <point x="468" y="-6" type="curve" smooth="yes"/>
    </contour>
    <contour>
      <point x="163" y="0" type="line"/>
      <point x="163" y="482" type="line"/>
      <point x="85" y="482" type="line"/>
      <point x="85" y="0" type="line"/>
    </contour>
    <contour>
      <point x="284" y="213" type="line"/>
      <point x="284" y="278" type="line"/>
      <point x="141" y="278" type="line"/>
      <point x="141" y="213" type="line"/>
    </contour>
    <contour>
      <point x="386" y="61"/>
      <point x="328" y="133"/>
      <point x="328" y="244" type="curve" smooth="yes"/>
      <point x="328" y="353"/>
      <point x="383" y="421"/>
      <point x="469" y="421" type="curve" smooth="yes"/>
      <point x="561" y="421"/>
      <point x="625" y="345"/>
      <point x="625" y="238" type="curve" smooth="yes"/>
      <point x="625" y="134"/>
      <point x="564" y="61"/>
      <point x="473" y="61" type="curve" smooth="yes"/>
    </contour>
    <contour>
      <point x="378" y="482" type="move" name="top"/>
    </contour>
  </outline>
</glyph>
<glyph name="uni0490" format="1">
  <advance width="553"/>
  <unicode hex="0490"/>
  <outline>
    <contour>
      <point x="189" y="0" type="line"/>
      <point x="189" y="622" type="line"/>
      <point x="527" y="622" type="line"/>
      <point x="527" y="854" type="line"/>
      <point x="461" y="854" type="line"/>
      <point x="461" y="694" type="line"/>
      <point x="106" y="694" type="line"/>
      <point x="106" y="0" type="line"/>
    </contour>
  </outline>
</glyph>
<glyph name="uni04A4" format="1">
  <advance width="938"/>
  <unicode hex="04A4"/>
  <outline>
    <contour>
      <point x="643" y="0" type="line"/>
      <point x="643" y="694" type="line"/>
      <point x="560" y="694" type="line"/>
      <point x="560" y="0" type="line"/>
    </contour>
    <contour>
      <point x="189" y="0" type="line"/>
      <point x="189" y="694" type="line"/>
      <point x="106" y="694" type="line"/>
      <point x="106" y="0" type="line"/>
    </contour>
    <contour>
      <point x="608" y="323" type="line"/>
      <point x="608" y="395" type="line"/>
      <point x="138" y="395" type="line"/>
      <point x="138" y="323" type="line"/>
    </contour>
    <contour>
      <point x="904" y="622" type="line"/>
      <point x="904" y="694" type="line"/>
      <point x="560" y="694" type="line"/>
      <point x="560" y="622" type="line"/>
    </contour>
  </outline>
</glyph>
<glyph name="uni2052" format="1">
  <advance width="684"/>
  <unicode hex="2052"/>
  <outline>
    <contour>
      <point x="150" y="0" type="line"/>
      <point x="616" y="694" type="line"/>
      <point x="527" y="694" type="line"/>
      <point x="67" y="0" type="line"/>
    </contour>
    <contour>
      <point x="559" y="-10"/>
      <point x="589" y="21"/>
      <point x="589" y="64" type="curve" smooth="yes"/>
      <point x="589" y="106"/>
      <point x="559" y="137"/>
      <point x="515" y="137" type="curve" smooth="yes"/>
      <point x="471" y="137"/>
      <point x="441" y="106"/>
      <point x="441" y="64" type="curve" smooth="yes"/>
      <point x="441" y="21"/>
      <point x="471" y="-10"/>
      <point x="515" y="-10" type="curve" smooth="yes"/>
    </contour>
    <contour>
      <point x="213" y="557"/>
      <point x="243" y="588"/>
      <point x="243" y="630" type="curve" smooth="yes"/>
      <point x="243" y="673"/>
      <point x="213" y="704"/>
      <point x="169" y="704" type="curve" smooth="yes"/>
      <point x="125" y="704"/>
      <point x="95" y="673"/>
      <point x="95" y="630" type="curve" smooth="yes"/>
      <point x="95" y="588"/>
      <point x="125" y="557"/>
      <point x="169" y="557" type="curve" smooth="yes"/>
    </contour>
  </outline>
</glyph>
<glyph name="product" format="1">
  <advance width="790"/>
  <unicode hex="220F"/>
  <outline>
    <contour>
      <point x="210" y="-95" type="line"/>
      <point x="210" y="622" type="line"/>
      <point x="580" y="622" type="line"/>
      <point x="580" y="-95" type="line"/>
      <point x="663" y="-95" type="line"/>
      <point x="663" y="694" type="line"/>
      <point x="127" y="694" type="line"/>
      <point x="127" y="-95" type="line"/>
    </contour>
  </outline>
</glyph>
<glyph name="summation" format="1">
  <advance width="656"/>
  <unicode hex="2211"/>
  <outline>
    <contour>
      <point x="582" y="-95" type="line"/>
      <point x="582" y="-24" type="line"/>
      <point x="173" y="-24" type="line"/>
      <point x="457" y="299" type="line"/>
      <point x="176" y="622" type="line"/>
      <point x="582" y="622" type="line"/>
      <point x="582" y="694" type="line"/>
      <point x="72" y="694" type="line"/>
      <point x="72" y="638" type="line"/>
      <point x="361" y="299" type="line"/>
      <point x="72" y="-39" type="line"/>
      <point x="72" y="-95" type="line"/>
    </contour>
  </outline>
</glyph>
<glyph name="integral" format="1">
  <advance width="419"/>
  <unicode hex="222B"/>
  <outline>
    <contour>
      <point x="260" y="-170"/>
      <point x="323" y="-104"/>
      <point x="323" y="0" type="curve" smooth="yes"/>
      <point x="323" y="155"/>
      <point x="183" y="424"/>
      <point x="183" y="578" type="curve" smooth="yes"/>
      <point x="183" y="643"/>
      <point x="208" y="676"/>
      <point x="258" y="676" type="curve" smooth="yes"/>
      <point x="275" y="676"/>
      <point x="294" y="674"/>
      <point x="321" y="664" type="curve"/>
      <point x="345" y="729" type="line"/>
      <point x="319" y="742"/>
      <point x="296" y="749"/>
      <point x="267" y="749" type="curve" smooth="yes"/>
      <point x="165" y="749"/>
      <point x="103" y="680"/>
      <point x="103" y="566" type="curve" smooth="yes"/>
      <point x="103" y="394"/>
      <point x="242" y="123"/>
      <point x="242" y="-9" type="curve" smooth="yes"/>
      <point x="242" y="-65"/>
      <point x="216" y="-97"/>
      <point x="171" y="-97" type="curve" smooth="yes"/>
      <point x="144" y="-97"/>
      <point x="114" y="-91"/>
      <point x="96" y="-82" type="curve"/>
      <point x="72" y="-148" type="line"/>
      <point x="101" y="-162"/>
      <point x="134" y="-170"/>
      <point x="162" y="-170" type="curve" smooth="yes"/>
    </contour>
  </outline>
</glyph>
<glyph name="lozenge" format="1">
  <advance width="583"/>
  <unicode hex="25CA"/>
  <outline>
    <contour>
      <point x="320" y="0" type="line"/>
      <point x="515" y="357" type="line"/>
      <point x="320" y="694" type="line"/>
      <point x="248" y="694" type="line"/>
      <point x="70" y="357" type="line"/>
      <point x="248" y="0" type="line"/>
    </contour>
    <contour>
      <point x="151" y="356" type="line"/>
      <point x="285" y="612" type="line"/>
      <point x="432" y="356" type="line"/>
      <point x="285" y="84" type="line"/>
    </contour>
  </outline>
</glyph>
<glyph name="_bottomhook" format="1">
  <advance width="581"/>
  <outline>
    <contour>
      <point x="453" y="-194"/>
      <point x="502" y="-113"/>
      <point x="502" y="-23" type="curve" smooth="yes"/>
      <point x="502" y="0" type="line"/>
      <point x="422" y="0" type="line"/>
      <point x="422" y="-35" type="line" smooth="yes"/>
      <point x="422" y="-98"/>
      <point x="394" y="-155"/>
      <point x="352" y="-179" type="curve"/>
      <point x="379" y="-227" type="line"/>
    </contour>
    <contour>
      <point x="457" y="0" type="move" name="_bottom"/>
    </contour>
  </outline>
</glyph>
<glyph name="descender-cy.strait" format="1">
  <advance width="267"/>
  <outline>
    <contour>
      <point x="182" y="-120" type="line"/>
      <point x="182" y="52" type="line"/>
      <point x="107" y="52" type="line"/>
      <point x="107" y="-120" type="line"/>
    </contour>
    <contour>
      <point x="145" y="0" type="move" name="_bottomright"/>
    </contour>
  </outline>
</glyph>
<glyph name="gravecomb.case" format="1">
  <advance width="283"/>
  <outline>
    <contour>
      <point x="243" y="786" type="line"/>
      <point x="97" y="917" type="line"/>
      <point x="47" y="853" type="line"/>
      <point x="211" y="744" type="line"/>
    </contour>
    <contour>
      <point x="244" y="801" type="move" name="top"/>
    </contour>
    <contour>
      <point x="195" y="694" type="move" name="_top"/>
    </contour>
  </outline>
</glyph>
<glyph name="periodcentered.loclCAT.case" format="1">
  <advance width="0"/>
  <outline>
    <component base="period" xOffset="-252" yOffset="304"/>
    <contour>
      <point x="0" y="352" type="move" name="_periodcentered"/>
    </contour>
  </outline>
</glyph>
<glyph name="seven.dnom" format="1">
  <advance width="74"/>
  <note>
    seven
  </note>
  <outline>
    <contour>
      <point x="168" y="0" type="line"/>
      <point x="379" y="430" type="line"/>
      <point x="379" y="472" type="line"/>
      <point x="28" y="472" type="line"/>
      <point x="28" y="407" type="line"/>
      <point x="316" y="407" type="line"/>
      <point x="302" y="429" type="line"/>
      <point x="89" y="0" type="line"/>
    </contour>
  </outline>
</glyph>
<glyph name="three.lf" format="1">
  <advance width="583"/>
  <outline>
    <contour>
      <point x="421" y="-10"/>
      <point x="526" y="68"/>
      <point x="526" y="183" type="curve" smooth="yes"/>
      <point x="526" y="285"/>
      <point x="444" y="361"/>
      <point x="323" y="373" type="curve"/>
      <point x="322" y="358" type="line"/>
      <point x="420" y="361"/>
      <point x="488" y="436"/>
      <point x="488" y="527" type="curve" smooth="yes"/>
      <point x="488" y="632"/>
      <point x="400" y="704"/>
      <point x="273" y="704" type="curve" smooth="yes"/>
      <point x="203" y="704"/>
      <point x="127" y="683"/>
      <point x="64" y="647" type="curve"/>
      <point x="83" y="586" type="line"/>
      <point x="143" y="614"/>
      <point x="205" y="631"/>
      <point x="256" y="631" type="curve" smooth="yes"/>
      <point x="345" y="631"/>
      <point x="403" y="585"/>
      <point x="403" y="514" type="curve" smooth="yes"/>
      <point x="403" y="436"/>
      <point x="335" y="388"/>
      <point x="224" y="388" type="curve" smooth="yes"/>
      <point x="184" y="388" type="line"/>
      <point x="184" y="316" type="line"/>
      <point x="222" y="316" type="line" smooth="yes"/>
      <point x="355" y="316"/>
      <point x="441" y="261"/>
      <point x="441" y="176" type="curve" smooth="yes"/>
      <point x="441" y="105"/>
      <point x="380" y="63"/>
      <point x="276" y="63" type="curve" smooth="yes"/>
      <point x="210" y="63"/>
      <point x="132" y="80"/>
      <point x="69" y="111" type="curve"/>
      <point x="50" y="44" type="line"/>
      <point x="116" y="10"/>
      <point x="193" y="-10"/>
      <point x="268" y="-10" type="curve" smooth="yes"/>
    </contour>
  </outline>
</glyph>
<glyph name="uni0304.loclVIET" format="1">
  <advance width="489"/>
  <outline>
    <contour>
      <point x="401" y="564" type="line"/>
      <point x="401" y="629" type="line"/>
      <point x="88" y="629" type="line"/>
      <point x="88" y="564" type="line"/>
    </contour>
    <contour>
      <point x="245" y="615" type="move" name="top"/>
    </contour>
    <contour>
      <point x="245" y="482" type="move" name="_top"/>
    </contour>
  </outline>
</glyph>
<glyph name="uni0307.case" format="1">
  <advance width="272"/>
  <outline>
    <component base="uni0307" yOffset="183"/>
    <contour>
      <point x="136" y="856" type="move" name="top"/>
    </contour>
    <contour>
      <point x="136" y="694" type="move" name="_top"/>
    </contour>
  </outline>
</glyph>
<glyph name="zero.tf" format="1">
  <advance width="0"/>
  <outline>
    <contour>
      <point x="433" y="-10"/>
      <point x="521" y="125"/>
      <point x="521" y="352" type="curve" smooth="yes"/>
      <point x="521" y="572"/>
      <point x="436" y="704"/>
      <point x="294" y="704" type="curve" smooth="yes"/>
      <point x="146" y="704"/>
      <point x="57" y="570"/>
      <point x="57" y="342" type="curve" smooth="yes"/>
      <point x="57" y="122"/>
      <point x="143" y="-10"/>
      <point x="287" y="-10" type="curve" smooth="yes"/>
    </contour>
    <contour>
      <point x="198" y="62"/>
      <point x="141" y="170"/>
      <point x="141" y="352" type="curve" smooth="yes"/>
      <point x="141" y="527"/>
      <point x="196" y="632"/>
      <point x="288" y="632" type="curve" smooth="yes"/>
      <point x="381" y="632"/>
      <point x="437" y="524"/>
      <point x="437" y="342" type="curve" smooth="yes"/>
      <point x="437" y="167"/>
      <point x="384" y="62"/>
      <point x="293" y="62" type="curve" smooth="yes"/>
    </contour>
    <contour>
      <point x="290" y="350" type="move" name="slash"/>
    </contour>
  </outline>
</glyph>
